<svg width="106" height="17" viewBox="0 0 106 17" fill="none" xmlns="http://www.w3.org/2000/svg">
<g clip-path="url(#clip0_4969_1102)">
<path d="M7.09823 0.618975C7.59802 0.618975 8.04773 0.704357 8.44754 0.875116C8.86161 1.03164 9.23998 1.20952 9.58265 1.40873C9.93958 1.60796 10.2751 1.79294 10.5892 1.96371C10.9033 2.12023 11.2246 2.19849 11.553 2.19849C11.81 2.18427 12.1027 2.14869 12.4311 2.09177C12.7167 2.03485 13.0451 1.94947 13.4163 1.83563C13.8018 1.70756 14.2301 1.52257 14.7013 1.28067C14.2301 1.73603 13.8446 2.12023 13.5448 2.43329C13.2592 2.73212 13.0379 2.98114 12.8808 3.18036C12.6952 3.40804 12.5596 3.58591 12.474 3.71398C12.3882 3.87051 12.2598 4.1053 12.0885 4.41836C11.9313 4.70296 11.7172 5.08717 11.4459 5.57098C11.1747 6.04057 10.8319 6.6596 10.4179 7.428C10.4179 6.44613 10.318 5.68482 10.1181 5.14409C9.93246 4.60335 9.72539 4.19068 9.49694 3.90608C9.22567 3.5788 8.91869 3.37247 8.57602 3.28708C8.26192 3.24439 7.94782 3.30131 7.63366 3.45784C7.31956 3.60014 7.00545 3.81359 6.69135 4.09819C6.39151 4.38279 6.09879 4.72431 5.81324 5.12274C5.54196 5.50695 5.29209 5.9125 5.06364 6.3394C4.84947 6.76628 4.671 7.20032 4.52822 7.64141C4.38544 8.06836 4.29263 8.46676 4.24979 8.83676C4.20696 9.16407 4.19982 9.54827 4.22838 9.98936C4.25694 10.4162 4.32119 10.8574 4.42113 11.3127C4.52108 11.7539 4.64958 12.1879 4.80664 12.6148C4.9637 13.0417 5.15645 13.4259 5.3849 13.7674C5.62762 14.0947 5.89891 14.3651 6.19876 14.5785C6.4986 14.7777 6.84128 14.8702 7.22677 14.856C7.6551 14.8276 8.0763 14.6994 8.49037 14.4718C8.8473 14.2868 9.21141 14.0022 9.58265 13.618C9.95384 13.2195 10.2751 12.6575 10.5464 11.9317L13.7161 12.5081C12.8023 13.618 11.91 14.4505 11.039 15.0054C10.1823 15.5604 9.41129 15.9517 8.72594 16.1794C7.92637 16.4355 7.16963 16.5565 6.45578 16.5422C5.55623 16.4426 4.71383 16.1723 3.92854 15.7312C3.14325 15.29 2.46505 14.7564 1.89393 14.1303C1.33708 13.49 0.901602 12.7927 0.587485 12.0385C0.273369 11.2843 0.137727 10.5443 0.180562 9.81863C0.209118 9.3348 0.309064 8.7727 0.4804 8.13235C0.651735 7.47779 0.880183 6.80896 1.16574 6.12592C1.46558 5.44291 1.82254 4.77411 2.2366 4.11954C2.65066 3.46496 3.10755 2.88153 3.60729 2.36925C4.10702 1.84275 4.64958 1.42297 5.23498 1.1099C5.83465 0.782618 6.45578 0.618975 7.09823 0.618975ZM14.2349 6.8517L18.1756 6.89439C17.9472 7.76242 17.7758 8.50234 17.6616 9.11422C17.5617 9.7261 17.4974 10.2384 17.4689 10.6511C17.4117 11.1206 17.3975 11.5191 17.426 11.8464C17.4689 12.1452 17.5403 12.4653 17.6402 12.8069C17.7259 13.0915 17.8544 13.4188 18.0257 13.7887C18.197 14.1587 18.4255 14.5287 18.711 14.8987C18.5397 14.8418 18.3541 14.7991 18.1542 14.7706C17.9543 14.7421 17.7687 14.7208 17.5974 14.7066C17.3975 14.6923 17.1976 14.6923 16.9977 14.7066C16.7978 14.7208 16.5765 14.7421 16.3338 14.7706C16.1339 14.7991 15.8911 14.8347 15.6056 14.8773C15.32 14.92 15.0202 14.977 14.706 15.0481C14.9202 14.4078 15.0844 13.8528 15.1986 13.3832C15.3272 12.9136 15.42 12.5223 15.477 12.2093C15.5342 11.8393 15.5699 11.5404 15.5841 11.3127C15.5841 11.0282 15.5841 10.708 15.5841 10.3522C15.5841 9.98225 15.5841 9.62653 15.5841 9.28501C15.5841 8.94349 15.577 8.64466 15.5628 8.3885C15.5484 8.11814 15.5199 7.94735 15.477 7.87626L15.2629 7.66279C15.1773 7.59163 15.0487 7.492 14.8774 7.36395C14.7204 7.22163 14.5062 7.05091 14.2349 6.8517ZM15.7555 3.56456C16.0554 3.40804 16.3552 3.36535 16.655 3.4365C16.9692 3.50765 17.2119 3.64283 17.3832 3.84205C17.5545 4.04127 17.6117 4.27606 17.5545 4.54643C17.5117 4.8168 17.2833 5.08005 16.8692 5.33619C16.4551 5.5781 16.0911 5.66348 15.7769 5.59233C15.4628 5.52118 15.2415 5.37177 15.113 5.14409C14.9845 4.91641 14.9631 4.65315 15.0487 4.35433C15.1344 4.04127 15.37 3.77802 15.7555 3.56456ZM20.4506 14.0449C20.5506 13.5753 20.6219 13.1626 20.6648 12.8069C20.7219 12.4369 20.7647 12.131 20.7933 11.889C20.8218 11.6045 20.8361 11.3625 20.8361 11.1633C20.8218 10.9214 20.8075 10.6368 20.7933 10.3096C20.7933 9.96805 20.779 9.63363 20.7504 9.30632C20.7362 8.9648 20.7147 8.66597 20.6862 8.40987C20.6576 8.13945 20.6219 7.94735 20.5791 7.83351C20.522 7.71967 20.4435 7.59873 20.3435 7.47069C20.1436 7.22874 19.8509 6.99396 19.4654 6.76628C19.7938 6.69512 20.0722 6.63823 20.3007 6.59555C20.5434 6.5386 20.7433 6.48881 20.9004 6.44613C21.0717 6.38918 21.2216 6.3394 21.3501 6.29671C21.4643 6.25403 21.6 6.21135 21.757 6.16867C21.8855 6.14019 22.0426 6.10461 22.2282 6.06192C22.4138 6.01923 22.628 5.96942 22.8707 5.9125L22.8065 7.85489C23.2634 7.31416 23.7274 6.90859 24.1986 6.63823C24.6697 6.36787 25.1124 6.17577 25.5264 6.06192C25.9976 5.91962 26.4616 5.84847 26.9185 5.84847C27.4897 5.87693 28.0179 5.96942 28.5034 6.12592C29.0031 6.28251 29.4315 6.46744 29.7884 6.68091C30.1596 6.88012 30.4595 7.09359 30.6879 7.32127C30.9164 7.54895 31.052 7.74815 31.0949 7.91894C31.2662 8.47387 31.309 8.98617 31.2233 9.45574C31.1377 9.9111 31.0235 10.3594 30.8807 10.8005C30.7522 11.2274 30.638 11.6543 30.538 12.0811C30.4523 12.5081 30.488 12.9705 30.6451 13.4686C30.7022 13.5966 30.7593 13.7247 30.8164 13.8528C30.8735 13.9666 30.9449 14.0805 31.0306 14.1943C31.1163 14.3081 31.2162 14.4007 31.3304 14.4718C31.1734 14.4576 31.0163 14.4505 30.8592 14.4505C30.7022 14.4362 30.5594 14.422 30.4309 14.4078C30.2739 14.3935 30.1311 14.3793 30.0026 14.3651C29.8598 14.3508 29.667 14.3437 29.4243 14.3437C29.0103 14.3437 28.3677 14.3651 27.4968 14.4078C27.6253 14.1089 27.7252 13.8599 27.7966 13.6607C27.8823 13.4472 27.9537 13.2765 28.0108 13.1484C28.0679 12.9919 28.1107 12.8709 28.1393 12.7856C28.3107 12.3729 28.4106 11.9033 28.4391 11.3768C28.482 10.8503 28.4463 10.3167 28.332 9.77595C28.2892 9.59095 28.2178 9.37037 28.1179 9.11422C28.0179 8.85807 27.8823 8.60908 27.711 8.36713C27.5539 8.12525 27.3612 7.91894 27.1327 7.74815C26.9185 7.57742 26.6686 7.47779 26.3831 7.44931C26.0975 7.4209 25.7763 7.492 25.4194 7.66279C25.0767 7.83351 24.7054 8.14662 24.3056 8.60197C24.0058 8.98617 23.7702 9.45574 23.5989 10.0107C23.4419 10.4803 23.3348 11.0709 23.2776 11.7823C23.2205 12.4796 23.3062 13.2978 23.5346 14.237C23.3348 14.2085 23.1491 14.1943 22.9778 14.1943C22.8065 14.1801 22.6637 14.1658 22.5494 14.1516C22.4066 14.1374 22.2782 14.1231 22.1639 14.1089C22.0355 14.1089 21.8927 14.1018 21.7356 14.0876C21.5928 14.0876 21.4143 14.0876 21.2002 14.0876C20.986 14.0734 20.7362 14.0591 20.4506 14.0449ZM38.5099 12.9563C38.9097 12.9563 39.2809 12.9136 39.6236 12.8282C39.9091 12.7571 40.1804 12.6432 40.4374 12.4867C40.7087 12.316 40.8872 12.0669 40.9728 11.7396C41.2584 11.7966 41.5011 11.8464 41.701 11.889C41.9009 11.9175 42.0723 11.946 42.2151 11.9745C42.3721 12.0172 42.5077 12.0456 42.6219 12.0598C42.7362 12.0883 42.8718 12.1167 43.0289 12.1452C43.1717 12.1737 43.343 12.2093 43.5429 12.2519C43.7571 12.2804 44.007 12.3231 44.2925 12.38C44.0783 12.3516 43.857 12.3729 43.6286 12.444C43.4144 12.5152 43.2074 12.5935 43.0075 12.6788C42.7791 12.7784 42.5649 12.8994 42.365 13.0417C42.2364 13.1271 42.0865 13.2551 41.9152 13.4259C41.7582 13.5966 41.5297 13.7603 41.2299 13.9168C40.93 14.0734 40.5302 14.2085 40.0305 14.3224C39.5451 14.422 38.9168 14.4576 38.1458 14.4291C37.2178 14.4007 36.4396 14.237 35.8114 13.9382C35.1831 13.6251 34.6763 13.248 34.2908 12.8069C33.9052 12.3516 33.6268 11.8606 33.4555 11.3341C33.2841 10.8076 33.1914 10.3167 33.177 9.86131C33.1628 9.40595 33.2985 8.92922 33.584 8.43118C33.8696 7.93315 34.2693 7.47779 34.7834 7.06511C35.3116 6.65244 35.947 6.31802 36.6895 6.06192C37.4319 5.79155 38.2457 5.65637 39.131 5.65637C39.645 5.65637 40.1162 5.7204 40.5445 5.84847C40.9871 5.96231 41.3869 6.11882 41.7438 6.31802C42.1151 6.51729 42.4364 6.74497 42.7077 7.00106C42.9789 7.24301 43.2074 7.492 43.393 7.74815C43.5786 8.01851 43.7357 8.30314 43.8642 8.60197C43.9784 8.85807 44.0712 9.1498 44.1426 9.47711C44.214 9.80436 44.2354 10.1388 44.2068 10.4803C43.1217 10.5088 42.2436 10.5301 41.5725 10.5443C40.9158 10.5586 40.4017 10.5657 40.0305 10.5657H39.0667H38.3386C38.0816 10.5657 37.746 10.5728 37.3319 10.587C36.9179 10.6012 36.411 10.6226 35.8114 10.6511C35.8827 11.2203 36.0612 11.6614 36.3468 11.9745C36.6466 12.2732 36.9608 12.5009 37.2891 12.6575C37.6604 12.8282 38.0673 12.9279 38.5099 12.9563ZM36.5824 9.11422C37.0393 9.1427 37.4176 9.16407 37.7175 9.17827C38.0316 9.19248 38.2886 9.20675 38.4885 9.22096C38.7026 9.23516 38.874 9.24233 39.0025 9.24233H39.5379C39.8949 9.24233 40.5588 9.22096 41.5297 9.17827C41.4869 8.55213 41.3512 8.07546 41.1228 7.74815C40.9086 7.4209 40.6801 7.17895 40.4374 7.02243C40.1519 6.8517 39.8377 6.75207 39.4951 6.7236C38.567 6.73786 37.8745 6.92996 37.4176 7.2999C36.975 7.66989 36.6966 8.27466 36.5824 9.11422ZM53.0782 0.298803C53.8492 0.327263 54.6274 0.469562 55.4127 0.725698C56.2122 0.967608 56.9476 1.36605 57.6186 1.92101C58.2897 2.46175 58.8608 3.16613 59.332 4.03415C59.8032 4.88795 60.0959 5.93385 60.2101 7.17185C60.3101 8.1822 60.1816 9.18538 59.8246 10.1815C59.4819 11.1633 59.0036 12.0669 58.3897 12.8923C57.7757 13.7176 57.069 14.422 56.2694 15.0054C55.4698 15.5746 54.6702 15.9517 53.8707 16.1367C53.3852 16.2505 52.8498 16.2648 52.2644 16.1794C51.6933 16.0798 51.1079 15.9019 50.5082 15.6457C49.9228 15.3754 49.3445 15.0339 48.7734 14.6212C48.2165 14.2085 47.7097 13.7389 47.2528 13.2124C46.7959 12.6717 46.4104 12.0883 46.0963 11.4622C45.7965 10.8361 45.6108 10.1815 45.5394 9.49842C45.468 8.92922 45.4609 8.30314 45.5181 7.6201C45.5894 6.9228 45.7251 6.23266 45.9249 5.54964C46.1391 4.85238 46.4319 4.18357 46.803 3.54322C47.1885 2.88864 47.674 2.31945 48.2594 1.83563C48.8448 1.33758 49.5302 0.953377 50.3155 0.68301C51.115 0.398412 52.036 0.270342 53.0782 0.298803ZM49.2446 8.94349C49.0447 10.4661 49.1875 11.6898 49.673 12.6148C50.1727 13.5397 50.9222 14.1018 51.9217 14.301C52.4071 14.4007 52.8712 14.301 53.3138 14.0022C53.7707 13.6892 54.1848 13.2409 54.556 12.6575C54.9273 12.074 55.2485 11.391 55.5198 10.6084C55.791 9.82573 55.991 9.00749 56.1195 8.15372C56.2479 7.2999 56.2551 6.5315 56.1408 5.84847C56.0409 5.15121 55.8624 4.56066 55.6054 4.07684C55.3485 3.5788 55.0343 3.19459 54.6631 2.92422C54.3061 2.65385 53.9349 2.50444 53.5494 2.47598C52.8784 2.43329 52.2929 2.61116 51.7932 3.0096C51.2935 3.39381 50.8723 3.89897 50.5296 4.52508C50.1869 5.15121 49.9085 5.85558 49.6943 6.63823C49.4945 7.4209 49.3445 8.1893 49.2446 8.94349ZM61.9713 14.0449C62.0712 13.5753 62.1425 13.1626 62.1852 12.8069C62.2424 12.4369 62.2851 12.131 62.3137 11.889C62.3423 11.6045 62.3563 11.3625 62.3563 11.1633C62.3423 10.9214 62.3277 10.6368 62.3137 10.3096C62.3137 9.96805 62.2997 9.63363 62.2711 9.30632C62.2564 8.9648 62.2351 8.66597 62.2065 8.40987C62.1778 8.13945 62.1425 7.94735 62.0999 7.83351C62.0426 7.71967 61.964 7.59873 61.8641 7.47069C61.6643 7.22874 61.3713 6.99396 60.9857 6.76628C61.314 6.69512 61.5924 6.63823 61.8209 6.59555C62.0639 6.5386 62.2637 6.48881 62.4209 6.44613C62.5921 6.38918 62.742 6.3394 62.8705 6.29671C62.985 6.25403 63.1203 6.21135 63.2774 6.16867C63.406 6.14019 63.5632 6.10461 63.749 6.06192C63.9342 6.01923 64.1486 5.96942 64.3911 5.9125L64.3271 7.85489C64.784 7.31416 65.2476 6.90859 65.7191 6.63823C66.19 6.36787 66.6329 6.17577 67.0471 6.06192C67.5181 5.91962 67.9823 5.84847 68.4392 5.84847C69.01 5.87693 69.5381 5.96942 70.0237 6.12592C70.5238 6.28251 70.9521 6.46744 71.3091 6.68091C71.6801 6.88012 71.9798 7.09359 72.2082 7.32127C72.4367 7.54895 72.5725 7.74815 72.6152 7.91894C72.7864 8.47387 72.8296 8.98617 72.7437 9.45574C72.6584 9.9111 72.5439 10.3594 72.4014 10.8005C72.2728 11.2274 72.1583 11.6543 72.0584 12.0811C71.9731 12.5081 72.0084 12.9705 72.1656 13.4686C72.2229 13.5966 72.2795 13.7247 72.3368 13.8528C72.3941 13.9666 72.4653 14.0805 72.5512 14.1943C72.6365 14.3081 72.7364 14.4007 72.851 14.4718C72.6938 14.4576 72.5366 14.4505 72.3794 14.4505C72.2229 14.4362 72.0797 14.422 71.9512 14.4078C71.7946 14.3935 71.6514 14.3793 71.5229 14.3651C71.3803 14.3508 71.1872 14.3437 70.9448 14.3437C70.5305 14.3437 69.8884 14.3651 69.0173 14.4078C69.1458 14.1089 69.2457 13.8599 69.317 13.6607C69.4029 13.4472 69.4742 13.2765 69.5314 13.1484C69.5881 12.9919 69.6314 12.8709 69.66 12.7856C69.8312 12.3729 69.9311 11.9033 69.9597 11.3768C70.0023 10.8503 69.967 10.3167 69.8525 9.77595C69.8098 9.59095 69.7386 9.37037 69.6381 9.11422C69.5381 8.85807 69.4029 8.60908 69.2317 8.36713C69.0745 8.12525 68.8814 7.91894 68.653 7.74815C68.4392 7.57742 68.1894 7.47779 67.9037 7.44931C67.618 7.4209 67.2969 7.492 66.9399 7.66279C66.597 7.83351 66.226 8.14662 65.8263 8.60197C65.526 8.98617 65.2908 9.45574 65.1197 10.0107C64.9625 10.4803 64.8553 11.0709 64.798 11.7823C64.7407 12.4796 64.8266 13.2978 65.0551 14.237C64.8553 14.2085 64.6695 14.1943 64.4983 14.1943C64.3271 14.1801 64.1839 14.1658 64.07 14.1516C63.9275 14.1374 63.7989 14.1231 63.6844 14.1089C63.5558 14.1089 63.4133 14.1018 63.2561 14.0876C63.1136 14.0876 62.9351 14.0876 62.7206 14.0876C62.5062 14.0734 62.2564 14.0591 61.9713 14.0449ZM80.0303 12.9563C80.4299 12.9563 80.8016 12.9136 81.1439 12.8282C81.4296 12.7571 81.7007 12.6432 81.9578 12.4867C82.2289 12.316 82.4074 12.0669 82.4933 11.7396C82.779 11.7966 83.0215 11.8464 83.2213 11.889C83.4217 11.9175 83.5929 11.946 83.7354 11.9745C83.8926 12.0172 84.0285 12.0456 84.1424 12.0598C84.2569 12.0883 84.3922 12.1167 84.5493 12.1452C84.6919 12.1737 84.8637 12.2093 85.0635 12.2519C85.2773 12.2804 85.5277 12.3231 85.8128 12.38C85.599 12.3516 85.3772 12.3729 85.1488 12.444C84.9349 12.5152 84.7278 12.5935 84.528 12.6788C84.2996 12.7784 84.0851 12.8994 83.8853 13.0417C83.7568 13.1271 83.6069 13.2551 83.4357 13.4259C83.2785 13.5966 83.0501 13.7603 82.7504 13.9168C82.4506 14.0734 82.051 14.2085 81.5509 14.3224C81.0653 14.422 80.4373 14.4576 79.666 14.4291C78.7382 14.4007 77.9603 14.237 77.3316 13.9382C76.7035 13.6251 76.1966 13.248 75.811 12.8069C75.4254 12.3516 75.147 11.8606 74.9758 11.3341C74.8046 10.8076 74.712 10.3167 74.6974 9.86131C74.6834 9.40595 74.8187 8.92922 75.1044 8.43118C75.3901 7.93315 75.7897 7.47779 76.3039 7.06511C76.832 6.65244 77.4674 6.31802 78.21 6.06192C78.9526 5.79155 79.7665 5.65637 80.6517 5.65637C81.1652 5.65637 81.6368 5.7204 82.065 5.84847C82.5079 5.96231 82.9075 6.11882 83.2645 6.31802C83.6355 6.51729 83.9566 6.74497 84.2283 7.00106C84.4994 7.24301 84.7278 7.492 84.9136 7.74815C85.0988 8.01851 85.256 8.30314 85.3845 8.60197C85.4991 8.85807 85.5917 9.1498 85.6629 9.47711C85.7342 9.80436 85.7561 10.1388 85.7275 10.4803C84.6419 10.5088 83.7641 10.5301 83.0927 10.5443C82.436 10.5586 81.9225 10.5657 81.5509 10.5657H80.5871H79.8591C79.602 10.5657 79.2664 10.5728 78.8527 10.587C78.4385 10.6012 77.9316 10.6226 77.3316 10.6511C77.4035 11.2203 77.582 11.6614 77.8671 11.9745C78.1668 12.2732 78.4811 12.5009 78.8095 12.6575C79.1811 12.8282 79.588 12.9279 80.0303 12.9563ZM78.1028 9.11422C78.5597 9.1427 78.938 9.16407 79.2378 9.17827C79.5521 9.19248 79.8092 9.20675 80.009 9.22096C80.2234 9.23516 80.3946 9.24233 80.5231 9.24233H81.0586C81.4156 9.24233 82.079 9.22096 83.0501 9.17827C83.0075 8.55213 82.8716 8.07546 82.6432 7.74815C82.4293 7.4209 82.2009 7.17895 81.9578 7.02243C81.6721 6.8517 81.3584 6.75207 81.0154 6.7236C80.0876 6.73786 79.3949 6.92996 78.938 7.2999C78.4958 7.66989 78.2174 8.27466 78.1028 9.11422ZM87.4454 1.3447C87.7165 1.54392 87.9882 1.69333 88.2593 1.79294C88.545 1.87832 88.8021 1.93524 89.0306 1.96371C89.287 2.00639 89.5441 2.01351 89.8012 1.98505C90.0443 1.95659 90.294 1.87121 90.5511 1.72891C90.8076 1.58661 91.1079 1.4372 91.4503 1.28067C91.7933 1.12414 92.1929 0.988955 92.6498 0.875116C93.1207 0.747046 93.6848 0.68301 94.3415 0.68301C94.6273 0.68301 94.927 0.73993 95.2413 0.853769C95.5697 0.967608 95.884 1.11702 96.1837 1.30201C96.4835 1.47277 96.7546 1.66488 96.9976 1.87832C97.2547 2.09177 97.4472 2.30522 97.5757 2.51867C97.7183 2.73212 97.8182 3.08075 97.8755 3.56456C97.9327 4.03415 97.9541 4.54643 97.94 5.1014C97.9254 5.65637 97.8755 6.20425 97.7896 6.74497C97.7183 7.28569 97.6111 7.72684 97.4685 8.06836C97.2973 8.36713 96.969 8.75139 96.4835 9.22096C96.0692 9.61942 95.4484 10.1317 94.6199 10.7578C93.792 11.3839 92.6784 12.131 91.2791 12.999C92.107 12.9848 92.7997 12.9634 93.3565 12.935C93.9279 12.8923 94.3915 12.8496 94.7485 12.8069C95.1627 12.75 95.4911 12.693 95.7335 12.6361C95.948 12.5508 96.1764 12.4298 96.4189 12.2732C96.6193 12.131 96.8331 11.946 97.0616 11.7183C97.3047 11.4906 97.5398 11.1918 97.7683 10.8218C97.8115 11.5902 97.8542 12.195 97.8968 12.6361C97.9254 12.8923 97.9467 13.1129 97.9614 13.2978C97.9754 13.4686 97.99 13.6678 98.004 13.8955C98.018 14.0947 98.0253 14.3224 98.0253 14.5785C98.04 14.8347 98.0613 15.105 98.0899 15.3896C97.3759 15.2047 96.7259 15.0623 96.1405 14.9627C95.555 14.8489 95.0555 14.7706 94.6413 14.7279C94.1563 14.671 93.7208 14.6426 93.3351 14.6426C92.9355 14.6568 92.4926 14.6923 92.0071 14.7493C91.5788 14.8062 91.0647 14.8915 90.4652 15.0054C89.8798 15.105 89.2158 15.2544 88.4732 15.4536C88.4165 15.2971 88.3665 15.1406 88.3233 14.9841C88.2806 14.8133 88.2447 14.6497 88.2167 14.4931C88.1734 14.3224 88.1381 14.1516 88.1095 13.9808C88.0808 13.8101 88.0522 13.6465 88.0236 13.49C87.9949 13.3476 87.9736 13.1982 87.9596 13.0417C87.945 12.8852 87.931 12.7358 87.9163 12.5935C89.0586 11.8677 89.987 11.2132 90.701 10.6297C91.415 10.032 91.9785 9.5269 92.3927 9.11422C92.8642 8.63039 93.2206 8.1893 93.4637 7.79083C93.7061 7.30706 93.906 6.77338 94.0631 6.18998C94.2203 5.60656 94.2702 5.06582 94.213 4.56778C94.1703 4.06973 93.9992 3.66418 93.6994 3.35112C93.3991 3.02383 92.9209 2.88153 92.2642 2.92422C91.8359 2.95268 91.429 3.1021 91.0434 3.37246C90.6723 3.64283 90.3294 3.97012 90.0156 4.35433C89.7013 4.73854 89.4229 5.15121 89.1804 5.59233C88.9374 6.01923 88.7302 6.42476 88.5591 6.80896C88.4019 7.19322 88.2733 7.51337 88.1734 7.76952C88.0881 8.02567 88.0449 8.16082 88.0449 8.17503C88.0309 8.20351 88.0096 8.09677 87.9809 7.85489C87.9663 7.613 87.945 7.31416 87.9163 6.95838C87.9023 6.58845 87.881 6.20425 87.8524 5.80578C87.8237 5.40734 87.7951 5.07294 87.7665 4.80257C87.7525 4.58912 87.7311 4.31164 87.7025 3.97012C87.6599 3.41515 87.574 2.54001 87.4454 1.3447ZM100.129 3.15901C100.629 3.00248 101.036 2.87441 101.35 2.77481C101.664 2.66097 101.921 2.56847 102.121 2.49732C102.349 2.41195 102.521 2.33368 102.635 2.26253L103.149 2.00639C103.348 1.90679 103.606 1.77871 103.92 1.62219C104.234 1.45142 104.641 1.23798 105.141 0.98184C105.026 1.52257 104.941 2.03485 104.884 2.51867C104.841 2.98826 104.805 3.40804 104.776 3.77802C104.734 4.20491 104.712 4.59623 104.712 4.95198C104.698 5.25081 104.677 5.64925 104.648 6.1473C104.634 6.64534 104.613 7.18606 104.584 7.76952C104.555 8.35292 104.527 8.9506 104.498 9.56247C104.469 10.1744 104.448 10.7507 104.434 11.2914C104.434 11.8179 104.441 12.2732 104.455 12.6575C104.484 13.0417 104.534 13.305 104.605 13.4472C104.677 13.618 104.769 13.7816 104.884 13.9382C104.984 14.0805 105.098 14.2441 105.226 14.4291C105.369 14.5999 105.54 14.7706 105.74 14.9414C105.412 15.0126 105.105 15.0765 104.819 15.1335C104.534 15.1762 104.284 15.2118 104.07 15.2402C103.813 15.2829 103.584 15.3185 103.384 15.3469C103.17 15.3612 102.878 15.3968 102.507 15.4536C102.192 15.4963 101.793 15.5533 101.307 15.6244C100.822 15.6813 100.222 15.7454 99.5081 15.8165C99.8791 15.5889 100.172 15.3683 100.386 15.1548C100.614 14.9414 100.786 14.7564 100.9 14.5999C101.029 14.4149 101.107 14.237 101.136 14.0663C101.15 13.9524 101.171 13.6465 101.2 13.1484C101.243 12.6361 101.278 12.0385 101.307 11.3554C101.35 10.6582 101.386 9.9182 101.414 9.13559C101.457 8.33872 101.486 7.59873 101.5 6.9157C101.514 6.23266 101.521 5.64925 101.521 5.16543C101.521 4.68162 101.5 4.3899 101.457 4.2903C101.4 4.19068 101.314 4.07684 101.2 3.94878C101.1 3.83494 100.964 3.71398 100.793 3.58591C100.636 3.45784 100.415 3.31555 100.129 3.15901Z" fill="#394BA7"/>
</g>
<defs>
<clipPath id="clip0_4969_1102">
<rect width="106" height="17" fill="white"/>
</clipPath>
</defs>
</svg>
