<svg width="81" height="30" viewBox="0 0 81 30" fill="none" xmlns="http://www.w3.org/2000/svg">
<g clip-path="url(#clip0_4969_1100)">
<path d="M5.92417 29.3478C8.42947 29.3478 10.7947 28.125 12.5842 26.9022C13.6113 26.1837 14.576 25.3736 15.4941 24.4413L13.4868 22.393C11.8685 23.9368 8.66291 26.1073 6.17314 26.1073C5.37953 26.1073 4.85046 25.8322 4.21246 24.7163C7.83817 23.7381 10.5146 21.0326 10.5146 18.5105C10.5146 16.2025 8.74072 14.6892 6.42212 14.6892C2.15841 14.6892 0.0732422 19.5194 0.0732422 22.9739C0.0732422 26.3519 2.01836 29.3478 5.92417 29.3478ZM3.85456 22.1637C3.85456 20.8033 4.10353 17.6087 6.76446 17.6087C7.26241 17.6087 7.65141 18.266 7.65141 19.1831C7.65141 20.467 5.33285 22.1637 3.85456 22.1637ZM18.0513 16.875C20.9457 13.4205 24.2135 8.89604 24.2135 5.02887C24.2135 2.26223 23.7311 0 20.5722 0C16.3552 0 13.881 10.9902 12.8851 16.982C12.3871 19.9779 12.1226 22.4388 11.9514 24.2272C11.8581 25.2667 11.7958 26.1991 11.7647 27.0245C12.5117 27.4677 13.2897 27.8498 14.1144 28.1862C15.5304 28.7823 17.3356 29.3478 19.0939 29.3478H19.483C19.872 29.195 20.2454 29.0421 20.5878 28.874C21.1947 28.5835 21.8638 28.232 22.2217 27.8804C25.1471 27.2232 27.3101 26.3213 29.5976 24.2884L28.3994 21.7663C26.7499 23.3866 25.225 24.0744 23.7156 24.9457C24.9448 23.0808 25.2094 21.4912 25.2094 19.4277C25.2094 16.9514 23.7622 14.6739 21.3347 14.6739C20.3855 14.6739 19.4674 15.6216 18.3003 17.0431L18.0513 16.875ZM19.7008 18.159C21.3347 18.159 21.7238 19.0608 21.7238 20.0696C21.7238 22.4083 20.8212 26.413 18.6738 26.413C18.0669 26.413 17.3822 26.2908 16.7753 26.1685C16.433 26.092 16.0907 26.0156 15.7484 25.9087C15.7794 25.5571 15.8106 25.175 15.8572 24.7623C15.9351 24.0438 16.0595 23.1114 16.2463 22.0109C16.6975 19.2901 18.2536 18.159 19.7008 18.159ZM21.2258 4.15761C20.9146 8.49861 17.9424 12.4576 16.2463 15.6674C16.7443 12.9772 18.7205 2.93478 20.4321 2.93478C21.1324 2.93478 21.2258 3.98947 21.2258 4.15761ZM28.4045 24.8845C28.5291 26.8257 28.5602 29.516 30.9721 29.516C32.4193 29.516 34.3644 26.5812 35.5782 24.1203C35.6248 25.6488 36.9631 27.1315 39.1883 27.1315C40.511 27.1315 42.036 26.5812 43.4053 25.7252V22.1332C42.9541 22.4236 42.5184 22.6987 42.0982 22.928C41.3669 23.3407 40.4799 23.7076 39.8574 23.7076C38.1769 23.7076 37.7567 22.714 37.7567 21.7357C37.7567 21.2619 37.8345 20.8186 37.9434 20.467C37.9902 20.2683 38.0524 20.0849 38.1302 19.9015C39.0483 17.8991 39.7018 17.0737 39.7018 15.9579C39.7018 15.2089 38.9082 14.6739 37.71 14.6739C36.8075 14.6739 36.0294 15.1936 35.9049 15.7592L31.8124 25.3431L31.5945 25.3583L32.2014 15.6828C32.1859 15.1478 31.7813 14.6739 31.0811 14.6739C30.9721 14.6739 30.8943 14.6892 30.7854 14.7045L28.9181 14.9949C28.249 15.1019 28.1245 16.3094 28.1245 18.4036C28.1245 20.0238 28.249 21.3383 28.3735 24.3953L28.4045 24.8845ZM51.2999 26.4283C51.2999 24.8386 50.3974 23.9521 48.6701 23.9521C46.6627 23.9521 45.8225 25.3889 45.8225 26.8716C45.8225 28.6141 46.8495 29.3478 48.3745 29.3478C51.2532 29.3478 51.2999 26.6882 51.2999 26.4283ZM63.5827 22.9891C62.2133 24.0897 59.8792 26.413 58.4009 26.413C57.7629 26.413 57.6073 25.8322 57.6073 24.9151C57.6073 22.0873 59.6924 16.9056 59.6924 15.5452C59.6924 15.0102 59.4435 14.6739 58.5721 14.6739C57.6384 14.6739 56.0356 15.1019 55.74 16.1566C54.9931 19.2136 53.6237 23.6922 53.6237 26.2755C53.6237 28.125 54.3551 29.3478 56.518 29.3478C58.9145 29.3478 62.0889 27.4372 63.5827 26.092V22.9891ZM56.627 10.3788C56.627 11.785 57.4828 12.7021 59.3034 12.7021C61.4197 12.7021 62.3223 11.3417 62.3223 9.966C62.3223 8.4375 61.1241 7.82609 59.6769 7.82609C57.3739 7.82609 56.627 9.44635 56.627 10.3788ZM69.6726 17.7921C69.7343 17.731 69.7191 22.1179 69.9056 22.9433C69.6726 23.5394 69.4077 24.0591 69.1122 24.533C68.6143 25.3431 67.8985 26.1226 67.1516 26.1226C65.7042 26.1226 65.4085 25.2208 65.4085 24.4107C65.4085 22.3625 66.9179 19.1067 69.6726 17.7921ZM79.9111 22.821C79.289 23.3407 78.6974 23.7993 78.1218 24.212C77.1106 24.9151 75.9587 25.6029 75.1806 25.6029C74.356 25.6029 74.0917 24.533 74.0917 23.3712C74.0917 22.4542 74.356 21.2772 74.5585 20.7269C76.7216 15.591 79.289 11.3723 79.8334 5.59443C79.8646 5.2123 79.8799 4.84545 79.8799 4.49388C79.8799 2.15523 79.1642 0 77.2036 0C73.2512 0 69.7967 7.67322 69.6102 15.5146C64.8795 15.9426 61.6739 20.4059 61.6739 24.3036C61.6739 26.8563 62.9499 29.3478 65.6264 29.3478C67.5248 29.3478 69.4701 28.0944 71.0104 26.627C72.0063 28.9962 73.9045 29.3326 74.4808 29.3326C75.5079 29.3326 76.9858 28.5835 78.1995 27.8498C78.9152 27.4066 79.6469 26.9174 80.3779 26.3519L79.9111 22.821ZM76.9858 6.71028C76.7833 8.86552 75.881 11.6168 75.0405 13.879C74.5425 15.1936 73.9981 16.5082 73.4065 17.838V17.6851C73.4065 17.0737 73.4065 15.3312 73.5778 13.3135C73.7027 11.8308 74.512 3.5462 76.5038 3.5462C76.8769 3.5462 77.0794 3.91304 77.0794 5.01359C77.0794 5.42629 77.0482 5.99185 76.9858 6.71028Z" fill="black"/>
</g>
<defs>
<clipPath id="clip0_4969_1100">
<rect width="81" height="30" fill="white"/>
</clipPath>
</defs>
</svg>
