<svg width="24" height="24" viewBox="0 0 24 24" fill="none" xmlns="http://www.w3.org/2000/svg">
<path d="M13 22.0009H9C8.73478 22.0009 8.48043 21.8956 8.29289 21.708C8.10536 21.5205 8 21.2661 8 21.0009V14.8009H6C5.73478 14.8009 5.48043 14.6956 5.29289 14.508C5.10536 14.3205 5 14.0661 5 13.8009V10.2009C5 9.93571 5.10536 9.68136 5.29289 9.49382C5.48043 9.30629 5.73478 9.20093 6 9.20093H8V7.50093C8.0701 5.97728 8.74062 4.54337 9.86497 3.51272C10.9893 2.48206 12.476 1.93852 14 2.00093H17C17.2652 2.00093 17.5196 2.10629 17.7071 2.29382C17.8946 2.48136 18 2.73571 18 3.00093V6.60093C18 6.86615 17.8946 7.1205 17.7071 7.30804C17.5196 7.49557 17.2652 7.60093 17 7.60093H14V9.20093H17C17.1544 9.19976 17.307 9.23436 17.4458 9.30203C17.5846 9.36969 17.7058 9.46857 17.8 9.59093C17.8931 9.71513 17.9561 9.8593 17.9839 10.012C18.0116 10.1648 18.0035 10.3219 17.96 10.4709L16.96 14.0709C16.8995 14.2872 16.768 14.4769 16.5866 14.6093C16.4052 14.7417 16.1844 14.8092 15.96 14.8009H14V21.0009C14 21.2661 13.8946 21.5205 13.7071 21.708C13.5196 21.8956 13.2652 22.0009 13 22.0009ZM10 20.0009H12V13.8009C12 13.5357 12.1054 13.2814 12.2929 13.0938C12.4804 12.9063 12.7348 12.8009 13 12.8009H15.24L15.68 11.2009H13C12.7348 11.2009 12.4804 11.0956 12.2929 10.908C12.1054 10.7205 12 10.4661 12 10.2009V7.50093C12.0257 6.98802 12.2477 6.50464 12.62 6.15093C12.9923 5.79722 13.4864 5.60029 14 5.60093H16V4.00093H14C13.0068 3.94042 12.0298 4.27396 11.281 4.9292C10.5321 5.58443 10.0719 6.5085 10 7.50093V10.2009C10 10.4661 9.89464 10.7205 9.70711 10.908C9.51957 11.0956 9.26522 11.2009 9 11.2009H7V12.8009H9C9.26522 12.8009 9.51957 12.9063 9.70711 13.0938C9.89464 13.2814 10 13.5357 10 13.8009V20.0009Z" fill="#6E7191"/>
</svg>
