<svg width="77" height="25" viewBox="0 0 77 25" fill="none" xmlns="http://www.w3.org/2000/svg">
<g clip-path="url(#clip0_4969_1104)">
<path d="M4.10403 2.09252C4.10403 2.69252 4.09248 3.39637 4.06938 4.20406C4.04628 4.98867 4.02318 5.58867 4.00008 6.00406C3.93078 7.18098 3.89613 8.3579 3.89613 9.53483C3.89613 10.4118 3.93078 11.3233 4.00008 12.2694C4.71618 11.231 5.49003 10.4694 6.32163 9.98483C7.15323 9.50021 8.15808 9.25791 9.33618 9.25791C10.1909 9.25791 10.9878 9.63867 11.727 10.4002C12.4662 11.1618 12.9398 12.0502 13.1477 13.0656C13.217 13.9656 13.2516 15.0618 13.2516 16.3541C13.2516 17.1848 13.2978 18.2694 13.3902 19.6079C13.4364 20.1156 13.5635 20.5887 13.7714 21.0271C14.0024 21.4656 14.3258 21.6848 14.7416 21.6848C14.9495 21.6848 15.1112 21.6733 15.2267 21.6502C15.3653 21.6271 15.4923 21.6156 15.6078 21.6156C15.9312 21.6156 16.1507 21.6964 16.2662 21.8579C16.4048 22.0194 16.4741 22.2502 16.4741 22.5502C16.4741 23.1041 16.1969 23.5194 15.6425 23.7964C15.0881 24.0733 14.5799 24.2118 14.1179 24.2118C12.4547 24.2118 11.3112 23.5194 10.6875 22.1348C10.341 21.3502 10.1216 20.3348 10.0292 19.0887C9.93678 17.8194 9.89058 16.3425 9.89058 14.6579C9.89058 12.9964 9.32464 12.1656 8.19274 12.1656C7.56904 12.1656 6.93378 12.5002 6.28698 13.1694C5.66328 13.8156 5.14353 14.681 4.72773 15.7656C4.31193 16.8271 4.10403 17.9348 4.10403 19.0887L4.13868 22.6887C4.13868 23.1964 3.94233 23.5771 3.54963 23.831C3.15693 24.0618 2.78733 24.1771 2.44083 24.1771C1.93263 24.1771 1.47063 24.0271 1.05483 23.7271C0.639034 23.4041 0.431134 23.0464 0.431134 22.6541C0.592834 20.9233 0.673684 18.0271 0.673684 13.9656C0.673684 13.2271 0.615934 10.4925 0.500434 5.76175L0.396484 2.57714C0.396484 2.06944 0.627484 1.63098 1.08948 1.26175C1.55148 0.869442 2.07123 0.673289 2.64873 0.673289C3.15693 0.673289 3.52653 0.788673 3.75753 1.01944C3.98853 1.25021 4.10403 1.6079 4.10403 2.09252ZM20.8045 1.8156C21.613 1.88483 22.3175 2.10406 22.9181 2.47329C23.5187 2.81944 23.819 3.35021 23.819 4.0656C23.819 4.59637 23.5649 5.02329 23.0567 5.34637C22.5716 5.64637 21.9826 5.79637 21.2896 5.79637C20.6197 5.79637 20.1577 5.62329 19.9036 5.27713C19.6495 4.93098 19.5224 4.57329 19.5224 4.20406C19.5224 3.51175 19.5917 2.93483 19.7303 2.47329C19.892 2.01175 20.2501 1.79252 20.8045 1.8156ZM23.5765 17.1502V18.1541C23.5765 19.0541 23.5996 19.9079 23.6458 20.7156C23.7151 21.5002 23.7959 22.2964 23.8883 23.1041C23.8652 23.3348 23.692 23.5771 23.3686 23.831C23.0452 24.0618 22.7564 24.1771 22.5023 24.1771C22.0634 24.1771 21.613 24.0964 21.151 23.9348C20.7121 23.7502 20.4464 23.531 20.354 23.2771C20.2154 22.5387 20.1461 21.881 20.1461 21.3041C20.1461 19.4118 20.0884 17.2887 19.9729 14.9348C19.8805 12.8579 19.8343 11.4041 19.8343 10.5733C19.8343 10.1579 20.0422 9.80021 20.458 9.50021C20.8738 9.20021 21.3127 9.05021 21.7747 9.05021C22.4446 9.05021 22.9066 9.20021 23.1607 9.50021C23.4379 9.80021 23.5765 10.2733 23.5765 10.9194V17.1502ZM35.522 3.65021C34.829 3.65021 34.4016 4.22714 34.2399 5.38098C34.0782 6.95021 33.9974 8.13867 33.9974 8.94637C34.4594 8.99252 34.9445 9.0156 35.4527 9.0156C35.7761 9.0156 36.1919 8.99252 36.7001 8.94637L37.601 8.91175C38.063 8.91175 38.4095 8.99252 38.6405 9.15406C38.8715 9.3156 38.987 9.58098 38.987 9.95021C38.987 10.4579 38.8137 10.8964 38.4672 11.2656C38.1438 11.6118 37.7627 11.7848 37.3238 11.7848C35.6606 11.7848 34.5402 11.8656 33.9627 12.0271C33.9627 13.4348 34.032 15.431 34.1706 18.0156L34.2399 19.7118L34.3785 22.4118C34.4247 23.081 34.3554 23.5541 34.1706 23.831C34.0089 24.0848 33.6509 24.2118 33.0965 24.2118C32.0801 24.2118 31.4217 23.6002 31.1214 22.3771C30.9366 21.4771 30.7865 20.2194 30.671 18.6041C30.5555 16.9887 30.4977 15.5464 30.4977 14.2771C30.4977 13.6079 30.5324 12.8464 30.6017 11.9925C30.5555 11.9694 30.4284 11.9579 30.2205 11.9579C30.0126 11.9579 29.8625 11.9694 29.7701 11.9925C29.0771 12.0387 28.5689 12.0618 28.2455 12.0618C28.0376 12.0618 27.8297 11.9233 27.6218 11.6464C27.4139 11.3464 27.3099 10.9887 27.3099 10.5733C27.3099 10.3425 27.3908 10.1348 27.5525 9.95021C27.7142 9.74252 27.9105 9.59252 28.1415 9.50021C28.488 9.3156 28.9847 9.22329 29.6315 9.22329L30.671 9.25791C30.671 5.98098 31.0406 3.7079 31.7798 2.43867C32.4728 1.23867 33.6162 0.638672 35.2101 0.638672C36.1341 0.638672 36.9773 0.869441 37.7396 1.33098C38.063 1.53867 38.3055 1.79252 38.4672 2.09252C38.652 2.39252 38.7444 2.68098 38.7444 2.9579C38.7444 3.30406 38.6058 3.66175 38.3286 4.03098C38.0745 4.40021 37.6818 4.58483 37.1505 4.58483C36.9426 4.58483 36.677 4.42329 36.3536 4.10021C36.2381 3.98483 36.111 3.88098 35.9724 3.78867C35.8338 3.69637 35.6837 3.65021 35.522 3.65021ZM45.8075 18.6733C45.8075 19.5502 45.9346 20.231 46.1887 20.7156C46.4659 21.1771 46.8124 21.4079 47.2282 21.4079C47.4592 21.4079 47.6786 21.3964 47.8865 21.3733C48.0944 21.3271 48.3023 21.3041 48.5102 21.3041C48.7412 21.3041 48.9376 21.4194 49.0993 21.6502C49.2841 21.881 49.3765 22.1348 49.3765 22.4118C49.3765 22.9656 49.1108 23.4041 48.5795 23.7271C48.0713 24.0271 47.3783 24.1771 46.5005 24.1771C45.8768 24.1771 45.2416 23.9925 44.5948 23.6233C43.9711 23.231 43.4513 22.631 43.0355 21.8233C42.6197 20.9925 42.4118 19.9656 42.4118 18.7425C42.4118 16.1118 42.458 13.8848 42.5504 12.0618C42.6659 9.89252 42.7237 7.1579 42.7237 3.8579C42.7237 2.81944 42.7814 2.09252 42.8969 1.67714C43.0355 1.35406 43.255 1.11175 43.5553 0.95021C43.8787 0.765596 44.2136 0.673289 44.5601 0.673289C44.9066 0.673289 45.2069 0.730981 45.461 0.846365C45.7382 0.96175 45.923 1.14637 46.0154 1.40021C46.1078 1.67714 46.1656 1.95406 46.1887 2.23098C46.2349 2.48483 46.258 2.85406 46.258 3.33867C46.258 4.28483 46.2233 5.19637 46.154 6.07329C46.1078 7.13483 46.0847 7.9079 46.0847 8.39252C45.8999 12.4541 45.8075 15.881 45.8075 18.6733ZM53.9882 1.8156C54.7967 1.88483 55.5013 2.10406 56.1018 2.47329C56.7024 2.81944 57.0028 3.35021 57.0028 4.0656C57.0028 4.59637 56.7486 5.02329 56.2405 5.34637C55.7554 5.64637 55.1663 5.79637 54.4733 5.79637C53.8034 5.79637 53.3414 5.62329 53.0873 5.27713C52.8332 4.93098 52.7062 4.57329 52.7062 4.20406C52.7062 3.51175 52.7754 2.93483 52.914 2.47329C53.0757 2.01175 53.4338 1.79252 53.9882 1.8156ZM56.7602 17.1502V18.1541C56.7602 19.0541 56.7833 19.9079 56.8295 20.7156C56.8988 21.5002 56.9796 22.2964 57.072 23.1041C57.072 23.381 56.9103 23.6348 56.5869 23.8656C56.2635 24.0733 55.9632 24.1771 55.6861 24.1771C55.2472 24.1771 54.7967 24.0964 54.3347 23.9348C53.8958 23.7502 53.6301 23.531 53.5377 23.2771C53.3991 22.5387 53.3298 21.881 53.3298 21.3041C53.3298 19.4118 53.2721 17.2887 53.1566 14.9348C53.0642 12.8579 53.018 11.4041 53.018 10.5733C53.018 10.1579 53.2259 9.80021 53.6417 9.50021C54.0575 9.20021 54.4964 9.05021 54.9584 9.05021C55.6283 9.05021 56.0903 9.20021 56.3444 9.50021C56.6216 9.80021 56.7602 10.2733 56.7602 10.9194V17.1502ZM73.2795 8.77329C73.7415 8.77329 74.0995 8.88867 74.3536 9.11944C74.6308 9.32714 74.7694 9.59252 74.7694 9.9156C74.7694 10.1464 74.7232 10.3887 74.6308 10.6425C74.5615 10.8733 74.4807 11.1156 74.3883 11.3694C73.857 12.6156 72.7366 14.3579 71.0272 16.5964C72.7828 18.8579 74.2035 20.3118 75.2892 20.9579C75.3816 21.0041 75.5548 21.0848 75.8089 21.2002C76.063 21.3156 76.2594 21.4541 76.398 21.6156C76.5597 21.7771 76.6405 21.9618 76.6405 22.1694C76.6405 22.6771 76.4442 23.0925 76.0515 23.4156C75.6819 23.7156 75.2314 23.8656 74.7001 23.8656C73.7992 23.8656 72.8175 23.3694 71.7549 22.3771C70.6923 21.3617 69.7914 20.3002 69.0522 19.1925C68.5209 20.0002 67.9087 20.8079 67.2157 21.6156C66.5458 22.4002 65.9221 23.0694 65.3446 23.6233C65.1136 23.8771 64.8364 24.0733 64.513 24.2118C64.2127 24.3502 63.9124 24.4194 63.6121 24.4194C63.1963 24.4194 62.8267 24.3271 62.5033 24.1425C62.1799 23.9579 62.0182 23.6348 62.0182 23.1733C62.0182 23.0579 62.0991 22.8733 62.2608 22.6194C62.4225 22.3425 62.5149 22.181 62.538 22.1348C62.8152 21.6502 63.1848 21.1541 63.6468 20.6464C64.1088 20.1156 64.3975 19.781 64.513 19.6425C64.7902 19.2964 65.0905 18.9618 65.4139 18.6387C65.5987 18.431 65.8759 18.1079 66.2455 17.6694C66.6151 17.231 66.8692 16.8848 67.0078 16.631L65.7951 14.9694C65.2176 14.3002 64.7209 13.7694 64.3051 13.3771C63.8893 12.9618 63.5544 12.7541 63.3003 12.7541C62.9307 12.7541 62.5842 12.8579 62.2608 13.0656C61.9836 13.2502 61.7064 13.3425 61.4292 13.3425C61.1289 13.3425 60.8979 13.2733 60.7362 13.1348C60.5745 12.9733 60.4936 12.8002 60.4936 12.6156C60.4936 11.831 60.8055 11.1618 61.4292 10.6079C62.0529 10.031 62.8383 9.74252 63.7854 9.74252C64.6863 9.74252 65.4832 10.0541 66.1762 10.6771C66.8923 11.2771 67.5969 12.0848 68.2899 13.1002C68.3823 13.1925 68.4862 13.3425 68.6017 13.5502C68.7172 13.7579 68.8327 13.931 68.9482 14.0694C69.2023 13.7002 69.6643 12.9848 70.3342 11.9233C71.0503 10.6541 71.4777 9.92714 71.6163 9.74252C72.1014 9.09637 72.6558 8.77329 73.2795 8.77329Z" fill="#D00707"/>
</g>
<defs>
<clipPath id="clip0_4969_1104">
<rect width="77" height="25" fill="white"/>
</clipPath>
</defs>
</svg>
