<svg width="21" height="21" viewBox="0 0 21 21" fill="none" xmlns="http://www.w3.org/2000/svg">
<path fill-rule="evenodd" clip-rule="evenodd" d="M10.5 21C16.299 21 21 16.299 21 10.5C21 4.70101 16.299 0 10.5 0C4.70101 0 0 4.70101 0 10.5C0 16.299 4.70101 21 10.5 21ZM15.4616 8.24293C15.8461 7.85852 15.8461 7.23523 15.4616 6.85082C15.0772 6.4664 14.454 6.4664 14.0696 6.85082L8.85938 12.061L6.93043 10.1321C6.54602 9.74765 5.92273 9.74765 5.53832 10.1321C5.1539 10.5165 5.1539 11.1398 5.53832 11.5242L8.16332 14.1491C8.54773 14.5336 9.17102 14.5336 9.55543 14.1491L15.4616 8.24293Z" fill="#1D4ED8"/>
</svg>
